Coordinates
version=1
nRows=6
nColumns=63
inDegrees=yes

Units are S.I. units (second, meters, Newtons, ...)
If the header above contains a line with 'inDegrees', this indicates whether rotational values are in degrees (yes) or radians (no).

endheader
time	pelvis_tilt	pelvis_list	pelvis_rotation	pelvis_tx	pelvis_ty	pelvis_tz	hip_flexion_r	hip_adduction_r	hip_rotation_r	knee_angle_r	knee_angle_r_beta	ankle_angle_r	subtalar_angle_r	mtp_angle_r	hip_flexion_l	hip_adduction_l	hip_rotation_l	knee_angle_l	knee_angle_l_beta	ankle_angle_l	subtalar_angle_l	mtp_angle_l	L5_S1_Flex_Ext	L5_S1_Lat_Bending	L5_S1_axial_rotation	L4_L5_Flex_Ext	L4_L5_Lat_Bending	L4_L5_axial_rotation	L3_L4_Flex_Ext	L3_L4_Lat_Bending	L3_L4_axial_rotation	L2_L3_Flex_Ext	L2_L3_Lat_Bending	L2_L3_axial_rotation	L1_L2_Flex_Ext	L1_L2_Lat_Bending	L1_L2_axial_rotation	L1_T12_Flex_Ext	L1_T12_Lat_Bending	L1_T12_axial_rotation	Abs_r3	Abs_r2	Abs_r1	Abs_t1	Abs_t2	neck_flexion	neck_bending	neck_rotation	arm_flex_r	arm_add_r	arm_rot_r	elbow_flex_r	pro_sup_r	wrist_flex_r	wrist_dev_r	arm_flex_l	arm_add_l	arm_rot_l	elbow_flex_l	pro_sup_l	wrist_flex_l	wrist_dev_l
0.824561	-1.175876	-1.447880	89.446950	0.208804	0.679199	0.815716	2.781452	-1.430708	0.901649	4.174174	0.072853	24.736101	10.584821	0.000000	1.197245	0.867248	-2.060905	1.095005	0.019111	21.320831	-2.306850	0.000000	0.065837	-0.145908	0.330287	0.122266	-0.194058	0.350930	0.108164	-0.354761	0.350930	0.075245	-0.354761	0.289001	0.061136	-0.297536	0.268358	0.037619	-0.226012	0.247715	0.470269	-1.650544	1.836957	0.000000	0.000000	27.390337	5.070468	-3.172324	13.842123	-6.222887	59.523506	43.387936	11.545754	-3.497427	16.799345	14.706907	-5.937827	56.783666	46.701228	56.158208	-2.565730	6.150830
0.842105	-1.256802	-1.476234	89.289469	0.209630	0.679151	0.815177	2.647018	-1.450380	1.576382	3.899974	0.068067	24.511884	9.903205	0.000000	1.165399	0.893919	-2.405814	1.061049	0.018519	21.360800	-1.959163	0.000000	0.057818	-0.149503	0.355737	0.107373	-0.198839	0.377971	0.094989	-0.363501	0.377971	0.066080	-0.363501	0.311270	0.053690	-0.304866	0.289036	0.033037	-0.231580	0.266803	0.412987	-1.691206	1.978503	0.000000	0.000000	27.380347	4.678158	-3.598445	13.616457	-6.151715	58.963723	43.575100	11.303032	-3.667252	16.725590	14.643576	-6.017507	56.637323	46.863567	56.736116	-2.108735	6.263435
0.859649	-1.335118	-1.560403	89.062415	0.210540	0.679037	0.814694	2.593516	-1.465260	2.206562	3.634753	0.063438	24.314829	9.375827	0.000000	1.189200	0.914011	-2.809365	1.023429	0.017862	21.395371	-1.634914	0.000000	0.054114	-0.154355	0.390776	0.100495	-0.205293	0.415199	0.088904	-0.375300	0.415199	0.061847	-0.375300	0.341929	0.050250	-0.314762	0.317505	0.030921	-0.239097	0.293082	0.386531	-1.746100	2.173378	0.000000	0.000000	27.383542	4.327350	-4.055317	13.496604	-6.081416	58.604218	43.696026	12.510814	-3.657816	16.528040	14.532513	-6.107448	56.381746	47.068250	57.286259	-1.753075	6.369318
0.877193	-1.403826	-1.690921	88.775482	0.211518	0.678877	0.814300	2.612742	-1.467653	2.757043	3.380457	0.059000	24.151988	9.046355	0.000000	1.263659	0.919512	-3.410865	0.989798	0.017275	21.458159	-1.134293	0.000000	0.053308	-0.159394	0.432305	0.098999	-0.211993	0.459324	0.087581	-0.387549	0.459324	0.060926	-0.387549	0.378267	0.049502	-0.325035	0.351248	0.030460	-0.246901	0.324229	0.380777	-1.803092	2.404350	0.000000	0.000000	27.390658	4.053645	-4.505129	13.500913	-6.008565	58.447946	43.705899	15.650490	-3.431432	16.084608	14.390387	-6.196212	56.029080	47.279169	57.798065	-1.478859	6.382307
0.894737	-1.469953	-1.856391	88.449256	0.212556	0.678661	0.814028	2.691397	-1.464881	3.320033	3.138006	0.054769	24.008396	8.764997	0.000000	1.381575	0.918853	-4.082352	0.964592	0.016835	21.525896	-0.598759	0.000000	0.054466	-0.165571	0.481955	0.101148	-0.220209	0.512077	0.089482	-0.402569	0.512077	0.062249	-0.402569	0.421711	0.050577	-0.337632	0.391588	0.031122	-0.256469	0.361466	0.389044	-1.872971	2.680488	0.000000	0.000000	27.391509	3.845642	-4.985740	13.566393	-5.923367	58.292048	43.641134	20.459815	-2.992120	15.559742	14.247875	-6.287590	55.632856	47.514850	58.145888	-1.327614	6.366176
0.912281	-1.517239	-2.041293	88.132160	0.213578	0.678401	0.813936	2.812428	-1.446830	3.809296	2.916230	0.050898	23.882676	8.574936	0.000000	1.532203	0.901146	-4.668554	0.944988	0.016493	21.563649	-0.183600	0.000000	0.055889	-0.170162	0.532321	0.103792	-0.226315	0.565591	0.091820	-0.413731	0.565591	0.063876	-0.413731	0.465780	0.051899	-0.346994	0.432510	0.031935	-0.263581	0.399240	0.399211	-1.924904	2.960607	0.000000	0.000000	27.372777	3.687260	-5.480386	13.691646	-5.859831	58.228233	43.573432	25.815210	-2.590388	14.933574	14.131866	-6.364166	55.223407	47.744617	58.309991	-1.277538	6.300782
